<svg width="120" height="60" viewBox="0 0 120 60" fill="none" xmlns="http://www.w3.org/2000/svg">
  <defs>
    <linearGradient id="logoGradient" x1="0%" y1="0%" x2="100%" y2="100%">
      <stop offset="0%" style="stop-color:#1e40af;stop-opacity:1" />
      <stop offset="100%" style="stop-color:#3b82f6;stop-opacity:1" />
    </linearGradient>
  </defs>
  
  <!-- Background circle -->
  <circle cx="30" cy="30" r="25" fill="url(#logoGradient)" />
  
  <!-- Medical cross -->
  <rect x="27" y="20" width="6" height="20" fill="white" rx="1"/>
  <rect x="20" y="27" width="20" height="6" fill="white" rx="1"/>
  
  <!-- DNA helix representation -->
  <path d="M45 15 Q50 20 55 15 Q60 20 65 15" stroke="#1e40af" stroke-width="2" fill="none"/>
  <path d="M45 25 Q50 30 55 25 Q60 30 65 25" stroke="#3b82f6" stroke-width="2" fill="none"/>
  <path d="M45 35 Q50 40 55 35 Q60 40 65 35" stroke="#1e40af" stroke-width="2" fill="none"/>
  <path d="M45 45 Q50 50 55 45 Q60 50 65 45" stroke="#3b82f6" stroke-width="2" fill="none"/>
  
  <!-- Text AEDIP -->
  <text x="75" y="25" font-family="Arial, sans-serif" font-size="14" font-weight="bold" fill="#1e40af">AEDIP</text>
  <text x="75" y="40" font-family="Arial, sans-serif" font-size="8" fill="#64748b">Inmunodeficiencias</text>
  <text x="75" y="50" font-family="Arial, sans-serif" font-size="8" fill="#64748b">Primarias</text>
</svg>